<svg width="48" height="48" viewBox="0 0 96 48" fill="none" xmlns="http://www.w3.org/2000/svg">
  <!-- Lane Lines -->
  <path d="M2 10 H 94" stroke="currentColor" stroke-width="2" stroke-linecap="round" stroke-dasharray="8 8" fill="none"/>
  <path d="M2 38 H 94" stroke="currentColor" stroke-width="2" stroke-linecap="round" stroke-dasharray="8 8" fill="none"/>

  <!-- Cars (thicker and clearer) -->
  <g fill="currentColor" fill-rule="evenodd">
    <!-- Left Car (car ahead) -->
    <path d="M10,16 C8.895,16 8,16.895 8,18 V30 C8,31.105 8.895,32 10,32 H34 C35.105,32 36,31.105 36,30 V18 C36,16.895 35.105,16 34,16 H10 Z M14,20 H30 V28 H14 V20 Z"/>
    <!-- Right Car (user's car) -->
    <path d="M60,16 C58.895,16 58,16.895 58,18 V30 C58,31.105 58.895,32 60,32 H84 C85.105,32 86,31.105 86,30 V18 C86,16.895 85.105,16 84,16 H60 Z M64,20 H80 V28 H64 V20 Z"/>
  </g>

  <!-- Radar Waves -->
  <g stroke="currentColor" stroke-width="2" stroke-linecap="round" fill="none">
    <path d="M54,20 C50,22 50,26 54,28"/>
    <path d="M50,18 C46,21 46,27 50,30"/>
  </g>
</svg>