<svg width="48" height="48" viewBox="0 0 50.4 63" fill="none" xmlns="http://www.w3.org/2000/svg">
  <!-- Driver's head -->
  <circle cx="18.428" cy="7.192" r="5.389" fill="currentColor"/>
  
  <!-- Driver's body -->
  <path d="M24.782,40.615c0.243-1.398-0.413-2.156-1.863-2.408c-0.234-0.041-0.522-0.037-0.858,0.012l-6.772,0.811     c-0.84,0.09-1.61,0.076-2.314-0.047c-2.785-0.482-4.601-2.068-5.394-4.717L4.205,23.438c-0.245-0.757-0.765-1.704-1.839-1.888     c-0.169-0.029-0.336-0.046-0.491-0.046c-1.294,0-1.709,1.011-1.84,1.617c-0.085,0.392-0.008,0.987,0.193,1.483l0.01,0.024     l3.291,10.812c1.331,4.344,4.159,6.836,8.651,7.613c1.031,0.18,2.13,0.199,3.26,0.062l7.022-0.762     C23.781,42.221,24.601,41.645,24.782,40.615z" fill="currentColor"/>
  
  <!-- Phone -->
  <path d="M26.056,17.998c-0.316,0-0.624-0.163-0.795-0.454c-0.262-0.44-0.116-1.007,0.324-1.267l3.7-2.194     c0.438-0.261,1.007-0.116,1.267,0.324c0.26,0.44,0.114,1.007-0.325,1.266l-3.698,2.194C26.38,17.955,26.216,17.998,26.056,17.998     L26.056,17.998z" fill="currentColor"/>
  
  <!-- Steering wheel -->
  <path d="M35.029,28.154c-0.71-0.98-1.537-1.555-2.478-1.717c-0.235-0.041-0.471-0.074-0.711-0.098l-7.298,0.678l-5.726,3.199     c-0.08,0.047-0.61,0.328-1.256,0.328c-0.287,0-0.602-0.057-0.907-0.217c-0.568-0.299-1.043-0.906-1.095-0.977l-4.323-5.864     c-0.203-0.276-0.144-0.661,0.13-0.864c0.276-0.202,0.661-0.142,0.863,0.13l4.318,5.857c0.127,0.168,0.433,0.496,0.68,0.625     c0.354,0.182,0.871-0.029,0.988-0.096l11.048-6.183c1.228-0.712,1.646-2.283,0.934-3.512c-0.714-1.227-2.286-1.645-3.513-0.933     L18.094,23.5l-2.043-7.902c-0.822-2.056-2.293-3.534-4.08-3.845c-1.376-0.239-2.688,0.038-3.921,0.833     c-1.23,0.79-1.966,1.875-2.204,3.251c-0.129,0.749-0.054,1.562,0.227,2.439l4.548,14.304c0.657,2.02,1.952,3.197,3.894,3.537     c0.461,0.08,0.958,0.096,1.496,0.055l13.009-1.639l-2.086,11.742c-0.362,2.086,0.44,3.719,2.456,4.066     c2.015,0.35,3.223-0.9,3.568-2.914l2.85-16.164C35.995,30.172,35.734,29.135,35.029,28.154z" fill="currentColor"/>
  
  <!-- Warning/exclamation mark -->
  <path d="M50.052,26.939l-6.946-9.506l5.512-4.623c0.594-0.499,0.672-1.383,0.175-1.976c-0.5-0.594-1.384-0.672-1.978-0.174   L34.392,21.082c-0.595,0.498-0.672,1.382-0.174,1.976c0.277,0.331,0.675,0.501,1.075,0.501c0.318,0,0.638-0.108,0.901-0.328   l4.757-3.99l6.835,9.353c0.274,0.377,0.701,0.576,1.134,0.576c0.287,0,0.576-0.088,0.826-0.271   C50.372,28.441,50.509,27.564,50.052,26.939z" fill="currentColor"/>
</svg>