<svg width="24" height="24" viewBox="0 0 24 24" fill="none" xmlns="http://www.w3.org/2000/svg">
<path d="M21 12.79C21 10.29 20.01 7.9 18.21 6.1C16.41 4.3 14.01 3.32 11.51 3.32C6.81 3.32 3 7.13 3 11.82C3 16.51 6.81 20.32 11.51 20.32C15.41 20.32 18.81 17.82 20.11 14.42C19.91 14.42 19.71 14.42 19.51 14.42C15.31 14.42 12 11.11 12 6.91C12 6.71 12 6.51 12.01 6.31C9.21 7.61 7.41 10.31 7.41 13.51C7.41 17.61 10.81 21 15.21 21C17.51 21 19.61 19.81 21 18.11V12.79Z" stroke="white" stroke-width="2" stroke-linecap="round" stroke-linejoin="round"/>
</svg> 