<svg width="24" height="24" viewBox="0 0 24 24" fill="none" xmlns="http://www.w3.org/2000/svg">
    <path d="M19.46,11.33,16.8,10.25a3.63,3.63,0,0,0-1.22-1.22L14.5,6.37,12.37,4.5l-1.08,2.66a3.63,3.63,0,0,0-1.22,1.22L8.98,9.45,7.1,11.63l2.66,1.08a3.63,3.63,0,0,0,1.22,1.22l1.08,2.66,2.18-1.88,1.08-2.66a3.63,3.63,0,0,0,1.22-1.22L19.46,11.33M12,13.5A1.5,1.5,0,1,1,13.5,12,1.5,1.5,0,0,1,12,13.5Z" stroke="white" stroke-width="2" stroke-linecap="round" stroke-linejoin="round"/>
    <path d="M21.74,13.15,19.1,14.53a5.13,5.13,0,0,1-1.68,1.68l-1.38,2.64,-.23.16.16-.23a.3.3,0,0,0,0-.42l-.08,0a.31.31,0,0,0-.42,0l.15.22-.22-.15a.3.3,0,0,0-.42,0h0a.3.3,0,0,0,0,.42l.23-.16-.16.23-2.64,1.38a5.13,5.13,0,0,1-1.68,1.68L10.27,24,9.45,21.72a.29.29,0,0,0-.37-.21l0,0a.3.3,0,0,0-.21.37L8.09,24l-2.28-.82a5.13,5.13,0,0,1-1.68-1.68L2.75,18.86l.82-2.28a.3.3,0,0,0,0-.42h0a.31.31,0,0,0-.42,0l-.23.16.16-.23a.29.29,0,0,0-.21-.37l0,0a.3.3,0,0,0-.37.21L2.2,16.5,0,15.68l.82-2.28a5.13,5.13,0,0,1,1.68-1.68L5.14,10.3l-.82-2.28L6.6,6.94l2.28.82a.31.31,0,0,0,.42,0l.09,0a.3.3,0,0,0,0-.42l-.23-.16.16.23a.29.29,0,0,0,.37-.21l0,0a.3.3,0,0,0-.21-.37L8.7,6.6,9.52,4.32a5.13,5.13,0,0,1,1.68-1.68L12.58,1.25l.23-.16-.16.23a.3.3,0,0,0,0,.42l.08,0a.31.31,0,0,0,.42,0l-.15-.22.22.15a.3.3,0,0,0,.42,0h0a.3.3,0,0,0,0-.42l-.23.16.16-.23L15,1.25a5.13,5.13,0,0,1,1.68,1.68L18.06,5.18l-.16.23.23-.16a.3.3,0,0,0,.42,0h0a.3.3,0,0,0,0-.42l-.08,0a.31.31,0,0,0,0,.42l.22.15-.15-.22a.29.29,0,0,0,.21.37l0,0a.3.3,0,0,0,.37-.21l.82,2.28,2.28-.82.82,2.28a5.13,5.13,0,0,1,1.68,1.68l1.38,2.64ZM12,15a3,3,0,1,1,3-3A3,3,0,0,1,12,15Z" stroke="white" stroke-linecap="round" stroke-linejoin="round" stroke-width="2"/>
</svg> 