<svg xmlns="http://www.w3.org/2000/svg" enable-background="new 0 0 161.888 223.912" viewBox="0 0 161.888 223.912" id="sleepy-driver">
  <path fill="currentColor" d="M113.603 102.481l1.586-3.582c1.256-2.84-.027-6.162-2.867-7.42-2.842-1.258-6.164.025-7.42 2.866l-2.108 4.762c.958-.297 1.946-.456 2.95-.456C108.845 98.652 111.737 100.116 113.603 102.481zM112.39 116.117c-.901.803-1.946 1.449-3.109 1.889-5.399 2.042-11.061 3.595-16.931 4.692l-4.653 10.51c-1.258 2.841.025 6.163 2.867 7.42 2.84 1.258 6.162-.025 7.42-2.865l6.831-15.431 53.532 23.699 3.541-8.001L112.39 116.117zM25.84 92.849L7.743 80.972c-2.307-1.515-5.408-.871-6.924 1.438-1.514 2.31-.871 5.409 1.438 6.924l16.36 10.737C20.628 97.025 23.123 94.61 25.84 92.849zM43.835 182.28h46.111l27.27 36.602c2.453 3.293 6.219 5.031 10.031 5.031 2.598.001 5.217-.806 7.461-2.477 5.535-4.124 6.678-11.954 2.555-17.491l-31.018-41.632c-2.371-3.182-6.055-5.033-10.023-5.033H56.429c-1.109-4.063-1.908-8.3-2.503-12.563l-24.078 33.946C34.169 182.146 39.1 182.763 43.835 182.28z"></path>
  <path fill="currentColor" d="M33.21,118.794l-0.125-0.042c-5.201-1.833-7.943-7.554-6.109-12.755c1.408-3.996,5.199-6.682,9.432-6.682
		c1.131,0,2.25,0.193,3.324,0.572l0.098,0.033l0.316,0.102c0.381,0.125,0.945,0.301,1.689,0.516
		c1.402,0.404,3.691,1.017,6.646,1.642c0.568,0.12,1.178,0.243,1.815,0.366c-2.385-6.279-7.183-11.103-13.063-11.179
		c-8.797-0.116-19.779,7.233-21.324,22.641c-2,21.196-0.414,34.313,7.193,55.345c0.143,0.315,0.287,0.621,0.434,0.922l28.991-40.874
		c-0.113-2.12-0.203-4.201-0.275-6.224c-9.611-1.423-16.456-3.515-19.019-4.375L33.21,118.794z"></path>
  <ellipse fill="currentColor" cx="65.339" cy="77.686" rx="22.493" ry="22.495" transform="rotate(-76.891 65.342 77.69)"></ellipse>
  <path fill="currentColor" d="M28.653 171.768c-2.233-1.611-5.348-1.108-6.968 1.117-.004.005-.01.01-.014.015L7.617 192.397c-1.613 2.239-1.107 5.364 1.132 6.979.885.638 1.908.945 2.921.945 1.553 0 3.083-.721 4.06-2.077l12.969-17.988 1.086-1.506C31.398 176.508 30.892 173.384 28.653 171.768zM108.573 116.136c4.133-1.565 6.215-6.184 4.648-10.314-1.563-4.133-6.182-6.213-10.313-4.65-10.721 4.063-21.684 5.439-31.488 5.438-9.297.002-17.522-1.236-23.354-2.471-2.914-.617-5.232-1.23-6.785-1.679-.777-.224-1.363-.406-1.74-.528-.188-.061-.324-.105-.404-.131-.07-.026-.07-.026-.07-.026-4.168-1.468-8.738.72-10.205 4.888-1.469 4.166.719 8.735 4.887 10.203.533.171 16.264 5.725 37.672 5.744C82.7 122.607 95.593 121.045 108.573 116.136zM112.952 16.56l6.662-8.884c.992-1.321 1.713-3.634 1.605-5.14-.107-1.508-1.541-2.645-3.186-2.528L99.839 1.305c-1.644.116-2.896 1.558-2.779 3.204l.031.432c.117 1.647 1.559 2.89 3.203 2.764l7.332-.562c1.469-.123 2.648-.243 3.545-.362-.801.924-1.85 2.285-1.85 2.285-1.008 1.307-2.643 3.455-3.637 4.773l-6.455 8.572c-.992 1.318-1.707 3.744-1.592 5.39l.004.046c.117 1.646 1.561 2.896 3.207 2.779l20.121-1.434c1.645-.117 2.896-1.559 2.779-3.205l-.059-.818c-.117-1.645-1.561-2.895-3.207-2.777l-8.984.639c-.516.037-1.004.1-1.004.1-1.639.207-2.158-.644-1.158-1.896C110.335 19.983 111.964 17.878 112.952 16.56zM121.29 48.044l-3.133 8.535c-.482 1.313-.469 3.454.029 4.76l.014.037c.498 1.307 1.975 1.966 3.281 1.469l15.965-6.096c1.307-.498 1.967-1.973 1.469-3.28l-.248-.647c-.498-1.307-1.975-1.968-3.279-1.469l-7.131 2.721c-.406.156-.789.327-.789.327-1.277.569-1.908.007-1.404-1.254.502-1.259 1.309-3.364 1.787-4.677l3.225-8.837c.479-1.313.498-3.366.041-4.562-.455-1.195-1.896-1.767-3.203-1.268l-14.438 5.51c-1.305.498-1.965 1.975-1.467 3.28l.131.343c.498 1.306 1.973 1.96 3.275 1.456l5.809-2.253c1.16-.46 2.086-.848 2.785-1.164-.426.947-.941 2.308-.941 2.308C122.573 44.59 121.773 46.734 121.29 48.044zM104.071 75.328c.93-.419 2.465-1.137 3.408-1.597l6.363-3.094c.945-.46 2.027-1.561 2.406-2.444.377-.886-.105-1.949-1.072-2.359l-10.686-4.563c-.967-.414-2.096.041-2.508 1.008l-.107.252c-.414.967.043 2.09 1.01 2.5l4.318 1.814c.869.358 1.572.633 2.113.826-.723.291-1.715.757-1.715.757-.949.448-2.502 1.188-3.447 1.646l-6.154 2.979c-.945.458-2.057 1.624-2.469 2.591l-.012.025c-.414.968.041 2.097 1.006 2.508l11.82 5.045c.967.412 2.096-.039 2.506-1.006l.207-.479c.412-.968-.041-2.096-1.008-2.509l-5.277-2.254c-.303-.129-.598-.234-.598-.234C103.189 76.38 103.14 75.745 104.071 75.328z"></path>
</svg>
